<svg width="432" height="432" xmlns="http://www.w3.org/2000/svg" xmlns:svg="http://www.w3.org/2000/svg">
 <g>
  <title>Layer 1</title>
  <g id="Layer_1"/>
  <g id="Layer_2"/>
  <g id="Layer_3"/>
  <g id="Layer_4"/>
  <g id="Layer_5"/>
  <g stroke="null" id="Layer_6">
   <g stroke="null" id="svg_1">
    <path stroke="#ffffff" fill="#053b71" d="m215.332785,412.018113c-0.72563,0.475187 -1.482814,0.897012 -2.227008,1.343851c0.714496,0.160057 1.453128,0.270106 2.227008,0.270106s1.510654,-0.110038 2.227008,-0.270106c-0.744193,-0.446839 -1.501377,-0.868674 -2.227008,-1.343851z" id="svg_2"/>
    <path stroke="#ffffff" fill="#053b71" d="m429.149998,195.549173l-4.472578,-18.960691c-1.063397,-4.503418 -5.981385,-7.376192 -11.001433,-6.427489l-82.932043,15.782787l-15.655885,-26.71036c-1.603448,-2.737732 -4.763953,-4.451727 -8.210249,-4.451727l-18.937024,0l-21.423852,-72.174658c-1.083817,-3.649748 -4.760238,-6.189065 -8.965576,-6.189065l-6.341419,0l0,-52.798809c0,-4.603456 -4.153374,-8.336566 -9.279218,-8.336566s-9.279218,3.73311 -9.279218,8.336566l0,52.798809l-34.169777,0l0,-68.081404c0,-4.603456 -4.155232,-8.336566 -9.279218,-8.336566s-9.279218,3.73311 -9.279218,8.336566l0,68.081404l-6.810943,0c-4.203481,0 -7.883616,2.539317 -8.965576,6.189065l-21.421994,72.174658l-19.256227,0c-3.44444,0 -6.606801,1.713995 -8.210249,4.451727l-15.754252,26.882089l-83.830271,-15.954516c-5.014487,-0.955369 -9.938036,1.92241 -10.999576,6.427489l-4.472578,18.960691c-0.510355,2.162506 -0.042688,4.420046 1.299093,6.274098c1.34177,1.852381 3.448154,3.15289 5.855189,3.611401l72.71749,13.838695l-12.935229,22.068557l-29.385414,20.039442c-3.587341,2.445945 -4.700855,6.854329 -2.64272,10.452386l76.460724,133.60181c8.080339,-1.578942 15.577939,-5.080305 21.707797,-10.295662c3.579922,-3.044513 9.180852,-3.044513 12.760774,0c8.542444,7.266154 19.714618,11.269369 31.458387,11.269369c11.743769,0 22.915943,-4.001554 31.458387,-11.269369c3.578064,-3.044513 9.180852,-3.044513 12.758916,0c8.542444,7.266154 19.714618,11.269369 31.458387,11.269369s22.9178,-4.001554 31.458387,-11.269369c3.578064,-3.044513 9.180852,-3.044513 12.758916,0c6.131705,5.215357 13.627458,8.71671 21.70594,10.295662l76.462581,-133.60181c2.059981,-3.598057 0.946478,-8.006442 -2.64272,-10.452386l-29.914332,-20.397914l-12.823871,-21.880151l71.817405,-13.668638c2.408882,-0.458511 4.515266,-1.757348 5.855189,-3.611401c1.34177,-1.854053 1.80759,-4.111592 1.299093,-6.274098l0.00001,0.00001zm-127.869424,-24.094348l33.048844,49.974382l-73.287228,-49.974382l40.238384,0zm-172.211076,0l40.553873,0l-67.550826,46.062866l26.996943,-46.062866l0.00001,0zm76.984069,139.117282l-112.08919,27.640715l-38.790828,-67.781289l150.880019,-102.884901l0,143.025465l0,0.00001zm14.887568,-166.459554c-0.076089,-0.051691 -0.159607,-0.085034 -0.235696,-0.135053c-0.181874,-0.115043 -0.369311,-0.215081 -0.560461,-0.318453c-0.295079,-0.161729 -0.592015,-0.311787 -0.901943,-0.440173c-0.19858,-0.083362 -0.399007,-0.160057 -0.606864,-0.231758c-0.343329,-0.116715 -0.688514,-0.210077 -1.042987,-0.290115c-0.191151,-0.043353 -0.37674,-0.093372 -0.571595,-0.125053c-0.5549,-0.0917 -1.115361,-0.151729 -1.67768,-0.151729c-0.003715,0 -0.007419,0 -0.012991,0c-0.003715,0 -0.005572,0 -0.009276,0c-0.564176,0 -1.124637,0.060019 -1.679537,0.151729c-0.196723,0.033343 -0.384159,0.083362 -0.57531,0.126715c-0.352615,0.080029 -0.697801,0.1734 -1.04113,0.290115c-0.205999,0.07169 -0.408284,0.148386 -0.606864,0.231758c-0.309927,0.130048 -0.610568,0.280105 -0.907505,0.443506c-0.187436,0.103372 -0.373025,0.200077 -0.549328,0.313458c-0.077946,0.050019 -0.163311,0.085034 -0.241258,0.138386l-15.874876,10.824202c-0.556757,-0.093372 -1.124637,-0.155062 -1.712938,-0.155062l-30.203839,0l18.311597,-61.690591l70.182403,0l18.311597,61.690591l-30.521186,0c-0.491802,0 -0.965041,0.063362 -1.432708,0.130048l-15.839617,-10.80252l-0.00001,0zm154.552735,126.317318l-38.792686,67.781289l-112.08919,-27.639053l0,-143.025465l150.881876,102.883229z" id="svg_3"/>
   </g>
   <path stroke="#ffffff" fill="#053b71" d="m404.522964,429.749996c-13.725814,0 -26.891157,-3.884839 -37.838779,-11.062626c-10.945764,7.177787 -24.112964,11.062626 -37.838779,11.062626s-26.891157,-3.884839 -37.838779,-11.062626c-10.945764,7.177787 -24.112964,11.062626 -37.838779,11.062626s-26.891157,-3.884839 -37.838779,-11.062626c-10.947612,7.177787 -24.112964,11.062626 -37.838779,11.062626c-13.725814,0 -26.891157,-3.884839 -37.838779,-11.062626c-10.947612,7.177787 -24.112964,11.062626 -37.838779,11.062626s-26.891157,-3.884839 -37.838779,-11.062626c-10.947612,7.177787 -24.112964,11.062626 -37.838779,11.062626c-5.123987,0 -9.279218,-3.731449 -9.279218,-8.336566s4.155232,-8.336566 9.279218,-8.336566c11.745626,0 22.9178,-4.001554 31.458387,-11.269369c3.579922,-3.044513 9.180852,-3.044513 12.760774,0c8.542444,7.266154 19.714618,11.269369 31.458387,11.269369s22.915943,-4.001554 31.458387,-11.269369c3.579922,-3.044513 9.180852,-3.044513 12.760774,0c8.542444,7.266154 19.714618,11.269369 31.458387,11.269369c11.743769,0 22.915943,-4.001554 31.458387,-11.269369c3.578064,-3.044513 9.180852,-3.044513 12.758916,0c8.542444,7.266154 19.714618,11.269369 31.458387,11.269369s22.9178,-4.001554 31.458387,-11.269369c3.578064,-3.044513 9.180852,-3.044513 12.758916,0c8.542444,7.266154 19.714618,11.269369 31.458387,11.269369s22.9178,-4.001554 31.458387,-11.269369c3.578064,-3.044513 9.180852,-3.044513 12.758916,0c8.542444,7.266154 19.714618,11.269369 31.458387,11.269369c5.125834,0 9.279218,3.731449 9.279218,8.336566s-4.147812,8.336566 -9.273646,8.336566l0.00005,0z" id="svg_4"/>
  </g>
 </g>
</svg>